<?xml version="1.0" standalone="no"?>
<!DOCTYPE svg PUBLIC "-//W3C//DTD SVG 20010904//EN"
 "http://www.w3.org/TR/2001/REC-SVG-20010904/DTD/svg10.dtd">
<svg version="1.0" xmlns="http://www.w3.org/2000/svg"
 width="512.000000pt" height="512.000000pt" viewBox="0 0 512.000000 512.000000"
 preserveAspectRatio="xMidYMid meet">

<g transform="translate(0.000000,512.000000) scale(0.100000,-0.100000)"
fill="#000000" stroke="none">
<path d="M1924 4529 c-71 -27 -137 -88 -171 -157 -26 -52 -28 -68 -31 -194
l-4 -137 -611 -3 -612 -3 -67 -32 c-88 -41 -160 -113 -201 -201 l-32 -67 -3
-674 c-3 -734 -3 -729 54 -827 28 -48 116 -134 160 -157 102 -52 497 -145 834
-196 219 -33 730 -81 861 -81 27 0 29 -3 29 -40 0 -21 5 -63 11 -92 70 -333
473 -458 715 -222 81 79 134 205 134 320 l0 32 63 6 c34 3 105 8 157 11 412
26 928 105 1279 195 63 17 118 30 122 30 5 0 9 -204 9 -452 0 -354 -3 -464
-14 -503 -51 -185 -186 -317 -368 -360 -96 -22 -3261 -22 -3357 0 -164 39
-285 148 -354 318 -21 49 -22 73 -27 445 -5 375 -6 394 -24 408 -29 21 -80 18
-102 -7 -18 -20 -19 -43 -22 -338 -2 -185 1 -355 8 -410 26 -224 150 -406 345
-501 152 -75 13 -70 1855 -70 1842 0 1703 -5 1855 70 193 95 320 277 345 496
5 49 10 293 10 542 0 392 2 453 15 458 31 12 105 126 125 193 20 65 21 88 18
736 l-3 670 -32 67 c-41 88 -113 160 -201 201 l-67 32 -612 3 -611 3 -4 137
c-3 126 -5 142 -31 194 -34 70 -101 131 -173 158 -53 19 -75 20 -637 19 -555
0 -584 -1 -633 -20z m1248 -148 c19 -13 46 -40 59 -59 22 -33 24 -45 24 -156
l0 -121 -695 0 -695 0 -3 95 c-2 52 2 114 9 137 13 49 69 109 113 122 17 5
280 9 592 8 l560 -2 36 -24z m-1902 -1421 l0 -940 -22 5 c-13 2 -77 14 -143
25 -66 11 -128 23 -137 26 -17 5 -18 52 -18 808 0 798 0 803 -21 830 -25 31
-66 34 -100 7 l-24 -19 -3 -796 -2 -796 -28 6 c-249 61 -333 98 -383 166 -59
82 -59 83 -59 758 0 706 -2 688 79 772 80 85 95 87 509 88 l352 0 0 -940z
m2430 -4 c0 -891 -1 -945 -18 -950 -26 -8 -421 -46 -564 -54 l-126 -7 -4 116
c-3 105 -5 119 -30 156 -16 24 -44 49 -70 62 -42 20 -59 21 -328 21 -269 0
-286 -1 -328 -21 -26 -13 -54 -38 -70 -62 -25 -37 -27 -50 -31 -159 -2 -65 -6
-118 -10 -118 -47 1 -450 33 -554 45 -77 8 -141 15 -143 15 -2 0 -4 428 -4
950 l0 950 1140 0 1140 0 0 -944z m935 917 c62 -33 121 -103 139 -164 23 -77
24 -1259 1 -1336 -18 -61 -87 -142 -142 -169 -32 -14 -282 -84 -305 -84 -4 0
-9 346 -10 769 -3 740 -4 770 -22 790 -22 25 -73 28 -102 7 -18 -14 -19 -36
-22 -809 l-2 -794 -128 -22 c-70 -12 -142 -24 -159 -28 l-33 -5 0 936 0 937
373 -3 c359 -3 373 -4 412 -25z m-1807 -1725 c9 -9 12 -75 12 -238 0 -216 -1
-227 -24 -275 -49 -103 -144 -164 -256 -165 -113 0 -208 61 -256 165 -23 48
-24 60 -24 276 0 162 3 228 12 237 17 17 519 17 536 0z"/>
</g>
</svg>
